---
layout: anime

title: Mushishi
image: https://i.imgur.com/D1zPVRo.jpg
mal: 457
anidb: 3433
r720: true
r1080: false

desc: >-
  Mushishi is one of those unique anime that manages to do everything just right. I spent a good chunk of last summer watching an episode a night before I slept, and I have to say it was such a chill experience. I highly recommend you to do the same :)
  <br><br>
  Video was sourced from bxhy, japanese flac from RUELL, english audio from the funimation dvd release (thanks to Catar for fetching it), and subtitles are from niizk, which have been modified by me. These modifications basically include changing some signs and making a few slight modifications to the opening.
  <br><br>
  I've also included two of the specials I found on the DVD. I did a quick simple encode of them, and modified funi's subs so you don't have to deal with their god-awful styling.

patches: true
patchinfo: >-
  <b>v2</b>
  <br><br>
  This v2 introduces tlacatlc6's subs as an option. These subs are sourced from retail subs, however there's a noticeable difference between his and niizk's. tlacatlc6's seems to be more detailed, but I decided to keep both since it's already there and why not (I know some people prefer fansubs over retail). I've merged signs from both subs so whichever you pick, you'll see the same signs (this includes the signs track naturally). I've also decreased the font size by 10px (60 -> 50) since it seemed too big. Most importantly, I've run both subs through shiftcut fixing some subs bleeding or not cutting right on a frame change. There weren't many for niizk's subs, so if you want to stick with v1, there won't be a huge difference.
  <br><br>
  <b>Episode 02v2</b>
  <br><br>
  It looks like I put niizk subs from ep 01 in ep 02, so if your episode 02 crc is 5A752623, download the patch in the download section.
  <br><br>
  <b>v2.1</b>
  <br><br>
  This is a minor patch that fixes a few TS issues. All files have been updated in the DDL links and the patches have been added to the download section.
  <ul>
  <li>Episode 2, 3, 9, 12: Fixed title style not showing properly in tlacatlc6's subtitles</li>
  <li>Episode 14: Added missing fonts</li>
  </ul>

status: Complete
groups: bxyh, RUELL, niizk, tlacatlc6
vidinfo: .mkv, h264 10-bit

size720: ~700 MB / Episode @ 720p (1280x720) [bxyh]
audio720a: English 2ch AC3 (Main Dialogue) [DVD]
audio720b: Japanese 5.1ch FLAC (Main Dialogue) [RUELL]
audio720c: English 2ch AC3 (Commentary - Episode 26 only) [DVD]
subtitle1: English (.ass) [(Modified) niizk Songs/Signs]
subtitle2: Japanese (.ass) [(Modifed) tlacatlc6 Full English Subtitles]
subtitle3: Japanese (.ass) [(Modified) niizk Full English Subtitles]

nyaa720: https://nyaa.si/view/1080284
anidex720: https://anidex.info/torrent/188448
at720: https://animetosho.org/view/cyc-mushishi-v2-bd-720p-hi10-x264-ac3.n1080284
ant720: https://animetorrents.me/torrent-details.php?torid=38810
ab720: https://animebytes.tv/torrents.php?id=504&torrentid=413654

patch: https://mega.nz/file/pWRFgSIR#K56tO3l-4pDuVeTv-h9UFZN39zctw6C3CDeCS4hsZzQ

github: https://github.com/cyc-anime/Mushishi
---
General
Unique ID                                : 208319248417557825367605443001629727713 (0x9CB8D3EE1B2DD2B7BFBAD30C62DEDBE1)
Complete name                            : [CyC] Mushishi 01v2 (BD 720p Hi10 x264 AC3+FLAC) [Dual-Audio] [343761E3].mkv
Format                                   : Matroska
Format version                           : Version 4
File size                                : 647 MiB
Duration                                 : 23 min 42 s
Overall bit rate mode                    : Variable
Overall bit rate                         : 3 816 kb/s
Movie name                               : The Green Seat
Encoded date                             : UTC 2018-09-29 03:54:14
Writing application                      : mkvmerge v9.7.1 ('Pandemonium') 64bit
Writing library                          : libebml v1.3.4 + libmatroska v1.4.5
Attachments                              : Phantasia.ttf / fette-mikado.regular.ttf / innovaalt-demi.otf / andlso.ttf / JoaoCond-Light.ttf / ArtificeSSK Regular.ttf

Video
ID                                       : 1
Format                                   : AVC
Format/Info                              : Advanced Video Codec
Format profile                           : High 4:4:4 Predictive@L4
Format settings                          : CABAC / 8 Ref Frames
Format settings, CABAC                   : Yes
Format settings, RefFrames               : 8 frames
Codec ID                                 : V_MPEG4/ISO/AVC
Duration                                 : 23 min 39 s
Bit rate                                 : 2 572 kb/s
Width                                    : 1 280 pixels
Height                                   : 720 pixels
Display aspect ratio                     : 16:9
Frame rate mode                          : Constant
Frame rate                               : 23.976 (24000/1001) FPS
Chroma subsampling                       : 4:4:4
Bit depth                                : 10 bits
Scan type                                : Progressive
Bits/(Pixel*Frame)                       : 0.116
Stream size                              : 435 MiB (67%)
Writing library                          : x264 core 142 r2431 ac76440
Encoding settings                        : cabac=1 / ref=8 / deblock=1:-1:-1 / analyse=0x3:0x133 / me=umh / subme=9 / psy=1 / psy_rd=1.00:0.15 / mixed_ref=1 / me_range=24 / chroma_me=1 / trellis=2 / 8x8dct=1 / cqm=0 / deadzone=21,11 / fast_pskip=0 / chroma_qp_offset=3 / threads=6 / lookahead_threads=1 / sliced_threads=0 / nr=0 / decimate=1 / interlaced=0 / bluray_compat=0 / constrained_intra=0 / bframes=3 / b_pyramid=2 / b_adapt=2 / b_bias=0 / direct=3 / weightb=1 / open_gop=0 / weightp=2 / keyint=240 / keyint_min=23 / scenecut=40 / intra_refresh=0 / rc_lookahead=60 / rc=crf / mbtree=1 / crf=17.0 / qcomp=0.60 / qpmin=0 / qpmax=81 / qpstep=4 / ip_ratio=1.40 / aq=1:1.00
Language                                 : Japanese
Default                                  : Yes
Forced                                   : No

Audio #1
ID                                       : 2
Format                                   : AC-3
Format/Info                              : Audio Coding 3
Commercial name                          : Dolby Digital
Codec ID                                 : A_AC3
Duration                                 : 23 min 42 s
Bit rate mode                            : Constant
Bit rate                                 : 192 kb/s
Channel(s)                               : 2 channels
Channel layout                           : L R
Sampling rate                            : 48.0 kHz
Frame rate                               : 31.250 FPS (1536 SPF)
Bit depth                                : 16 bits
Compression mode                         : Lossy
Stream size                              : 32.6 MiB (5%)
Language                                 : English
Service kind                             : Complete Main
Default                                  : Yes
Forced                                   : No

Audio #2
ID                                       : 3
Format                                   : FLAC
Format/Info                              : Free Lossless Audio Codec
Codec ID                                 : A_FLAC
Duration                                 : 23 min 37 s
Bit rate mode                            : Variable
Bit rate                                 : 1 057 kb/s
Channel(s)                               : 6 channels
Channel layout                           : L R C LFE Ls Rs
Sampling rate                            : 48.0 kHz
Frame rate                               : 11.719 FPS (4096 SPF)
Bit depth                                : 16 bits
Compression mode                         : Lossless
Stream size                              : 179 MiB (28%)
Writing library                          : libFLAC 1.2.1 (UTC 2007-09-17)
Language                                 : Japanese
Default                                  : No
Forced                                   : No

Text #1
ID                                       : 4
Format                                   : ASS
Codec ID                                 : S_TEXT/ASS
Codec ID/Info                            : Advanced Sub Station Alpha
Duration                                 : 23 min 16 s
Bit rate                                 : 11 b/s
Count of elements                        : 20
Compression mode                         : Lossless
Stream size                              : 1.89 KiB (0%)
Title                                    : (Modified) niizk Songs/Signs
Language                                 : English
Default                                  : Yes
Forced                                   : Yes

Text #2
ID                                       : 5
Format                                   : ASS
Codec ID                                 : S_TEXT/ASS
Codec ID/Info                            : Advanced Sub Station Alpha
Duration                                 : 23 min 33 s
Bit rate                                 : 123 b/s
Count of elements                        : 326
Compression mode                         : Lossless
Stream size                              : 21.3 KiB (0%)
Title                                    : (Modified) tlacatlc6 Full Subtitles
Language                                 : Japanese
Default                                  : No
Forced                                   : No

Text #3
ID                                       : 6
Format                                   : ASS
Codec ID                                 : S_TEXT/ASS
Codec ID/Info                            : Advanced Sub Station Alpha
Duration                                 : 23 min 33 s
Bit rate                                 : 99 b/s
Count of elements                        : 296
Compression mode                         : Lossless
Stream size                              : 17.2 KiB (0%)
Title                                    : (Modified) niizk Full Subtitles
Language                                 : Japanese
Default                                  : No
Forced                                   : No

Menu
00:00:00.000                             : en:Avant
00:00:30.000                             : en:Opening
00:01:33.000                             : en:Part A
00:09:46.652                             : en:Part B
00:22:28.000                             : en:Ending
00:23:32.975                             : en:Preview